<svg xmlns="http://www.w3.org/2000/svg" viewBox="0 0 326.85 212.49"><defs><style>.cls-1,.cls-14,.cls-21,.cls-6,.cls-8,.cls-9{fill:none;}.cls-1,.cls-10,.cls-11,.cls-2,.cls-9{stroke:#000;}.cls-1,.cls-10,.cls-11,.cls-14,.cls-2,.cls-21,.cls-6,.cls-8,.cls-9{stroke-miterlimit:10;}.cls-1,.cls-10,.cls-11,.cls-2{stroke-width:0.5px;}.cls-2,.cls-22{fill:#037f8c;}.cls-3{font-size:14.49px;}.cls-15,.cls-3{font-family:MyriadPro-Regular, Myriad Pro;}.cls-4{letter-spacing:0.02em;}.cls-5{letter-spacing:-0.01em;}.cls-6{stroke:#037f8c;}.cls-7{letter-spacing:0em;}.cls-8{stroke:#4db5ff;}.cls-9{stroke-width:0.5px;}.cls-10,.cls-23{fill:#4db5ff;}.cls-11,.cls-24{fill:#265a80;}.cls-12{letter-spacing:0em;}.cls-13{letter-spacing:-0.01em;}.cls-14{stroke:#265a80;}.cls-15{font-size:28.23px;}.cls-16{letter-spacing:-0.01em;}.cls-17{letter-spacing:0em;}.cls-18{letter-spacing:-0.01em;}.cls-19{letter-spacing:0em;}.cls-20{letter-spacing:0em;}.cls-21{stroke:#012340;stroke-width:2px;}</style></defs><title>Costas Argentianas</title><g id="Capa_2" data-name="Capa 2"><g id="Capa_1-2" data-name="Capa 1"><line class="cls-1" x1="143.06" y1="86.53" x2="128.47" y2="46.74"/><line class="cls-1" x1="128.47" y1="46.74" x2="87.35" y2="46.74"/><rect class="cls-2" x="78.73" y="41.43" width="10.61" height="10.61"/><text class="cls-3" transform="translate(12.69 52.24)">11% <tspan class="cls-4" x="29.42" y="0">O</tspan><tspan x="39.65" y="0">t</tspan><tspan class="cls-5" x="44.45" y="0">r</tspan><tspan x="49.04" y="0">os</tspan></text><line class="cls-6" x1="14.39" y1="54.2" x2="72.14" y2="54.2"/><line class="cls-1" x1="113.88" y1="106.43" x2="82.04" y2="81.23"/><text class="cls-3" transform="translate(0 85.56) scale(1.01 1)">7% L<tspan class="cls-7" x="28.83" y="0">a</tspan><tspan x="35.75" y="0">tas</tspan></text><line class="cls-8" x1="1.35" y1="87.74" x2="51.32" y2="87.53"/><line class="cls-9" x1="82.12" y1="81.23" x2="66.44" y2="81.23"/><rect class="cls-10" x="58.4" y="76.58" width="9.38" height="9.28"/><line class="cls-1" x1="217.46" y1="204.85" x2="204.07" y2="191.32"/><line class="cls-1" x1="232.86" y1="204.85" x2="217.46" y2="204.85"/><rect class="cls-11" x="232.87" y="199.54" width="9.28" height="9.28"/><text class="cls-3" transform="translate(245.36 208.87)">82% <tspan class="cls-12" x="29.42" y="0">P</tspan><tspan x="37.06" y="0">lásti</tspan><tspan class="cls-13" x="61.39" y="0">c</tspan><tspan x="67.8" y="0">os</tspan></text><line class="cls-14" x1="248.78" y1="210.83" x2="325.72" y2="210.83"/><text class="cls-15" transform="translate(1.07 23.63)"><tspan class="cls-16">C</tspan><tspan x="16.06" y="0">ostas </tspan><tspan class="cls-17" x="82.86" y="0">A</tspan><tspan class="cls-18" x="100.06" y="0">r</tspan><tspan x="109.07" y="0">ge</tspan><tspan class="cls-19" x="138.99" y="0">n</tspan><tspan class="cls-20" x="154.55" y="0">tinas</tspan></text><line class="cls-21" x1="10.35" y1="26.18" x2="205.35" y2="26.18"/><path class="cls-22" d="M163,82.55a62,62,0,0,0-39.69,14.28l16.79,20.29a36.47,36.47,0,0,1,23.34-8.41V82.56Z"/><path class="cls-23" d="M140.05,117.12a36.6,36.6,0,0,0-9.55,12.09L106.69,118a62.46,62.46,0,0,1,16.57-21.18Z"/><path class="cls-24" d="M225.3,144.9A62.35,62.35,0,1,1,106.69,118l23.81,11.2a36.63,36.63,0,1,0,32.89-20.5V82.56A62.34,62.34,0,0,1,225.3,144.9Z"/></g></g></svg>