<svg xmlns="http://www.w3.org/2000/svg" viewBox="0 0 372.8 226.73"><defs><style>.cls-1{font-size:14.49px;}.cls-1,.cls-14{font-family:MyriadPro-Regular, Myriad Pro;}.cls-2{letter-spacing:0em;}.cls-3{letter-spacing:0em;}.cls-4{letter-spacing:-0.01em;}.cls-12,.cls-19,.cls-29,.cls-5,.cls-6,.cls-8{fill:none;}.cls-19,.cls-5{stroke:#012340;}.cls-12,.cls-19,.cls-24,.cls-29,.cls-5,.cls-6,.cls-7,.cls-8,.cls-9{stroke-miterlimit:10;}.cls-24,.cls-6,.cls-7,.cls-8,.cls-9{stroke:#000;}.cls-6{stroke-width:0.5px;}.cls-23,.cls-7{fill:#012340;}.cls-24,.cls-7,.cls-8,.cls-9{stroke-width:0.5px;}.cls-9{fill:#265a80;}.cls-10{letter-spacing:0.02em;}.cls-11{letter-spacing:-0.01em;}.cls-12{stroke:#265a80;}.cls-13{letter-spacing:0em;}.cls-14{font-size:28.23px;}.cls-15{letter-spacing:-0.01em;}.cls-16{letter-spacing:0.01em;}.cls-17{letter-spacing:0em;}.cls-18{letter-spacing:0em;}.cls-19{stroke-width:2px;}.cls-20,.cls-24{fill:#025e73;}.cls-21{fill:#07c;}.cls-22{fill:#004a80;}.cls-25{letter-spacing:0.01em;}.cls-26{letter-spacing:-0.01em;}.cls-27{letter-spacing:0em;}.cls-28{letter-spacing:-0.02em;}.cls-29{stroke:#025e73;}</style></defs><title>Costas del Río de la Plata</title><g id="Capa_2" data-name="Capa 2"><g id="Capa_1-2" data-name="Capa 1"><text class="cls-1" transform="translate(0 194.8) scale(1.01 1)">30% <tspan class="cls-2" x="29.42" y="0">P</tspan><tspan class="cls-3" x="37.06" y="0">lásti</tspan><tspan class="cls-4" x="61.39" y="0">c</tspan><tspan class="cls-3" x="67.8" y="0">os</tspan></text><line class="cls-5" x1="1.35" y1="196.97" x2="78.32" y2="196.76"/><line class="cls-6" x1="109.12" y1="190.46" x2="93.44" y2="190.46"/><rect class="cls-7" x="85.4" y="185.82" width="9.38" height="9.28"/><line class="cls-8" x1="232.86" y1="219.08" x2="219.64" y2="219.08"/><rect class="cls-9" x="232.87" y="213.78" width="9.28" height="9.28"/><text class="cls-1" transform="translate(245.36 223.1)">17% <tspan class="cls-10" x="29.42" y="0">O</tspan><tspan x="39.65" y="0">t</tspan><tspan class="cls-11" x="44.45" y="0">r</tspan><tspan x="49.04" y="0">os</tspan></text><line class="cls-12" x1="248.78" y1="225.06" x2="307.35" y2="224.97"/><line class="cls-8" x1="266.86" y1="168.08" x2="255.19" y2="168.08"/><rect class="cls-9" x="266.87" y="162.78" width="9.28" height="9.28"/><text class="cls-1" transform="translate(279.36 172.1)">9% L<tspan class="cls-13" x="28.83" y="0">a</tspan><tspan x="35.75" y="0">tas</tspan></text><line class="cls-12" x1="282.78" y1="174.06" x2="332.35" y2="173.97"/><text class="cls-14" transform="translate(17.27 23.63)"><tspan class="cls-15">C</tspan><tspan x="16.06" y="0">ostas del </tspan><tspan class="cls-16" x="125.58" y="0">R</tspan><tspan x="141.05" y="0">ío de la </tspan><tspan class="cls-17" x="231.46" y="0">P</tspan><tspan x="246.33" y="0">l</tspan><tspan class="cls-18" x="253" y="0">a</tspan><tspan x="266.49" y="0">ta</tspan></text><line class="cls-19" x1="26.35" y1="26.18" x2="299.35" y2="26.18"/><path class="cls-20" d="M178.85,81.47a63,63,0,0,0-58.59,39.8l25.11,9.94a36,36,0,0,1,69.48,13.26h27A63,63,0,0,0,178.85,81.47Z"/><path class="cls-21" d="M241.85,144.47a62.73,62.73,0,0,1-9.8,33.76l-22.8-14.47a35.77,35.77,0,0,0,5.6-19.29Z"/><path class="cls-22" d="M232.05,178.23a63,63,0,0,1-53.2,29.24c-1.33,0-2.64,0-3.95-.12l1.69-26.95c.75,0,1.5.07,2.26.07a36,36,0,0,0,30.4-16.71Z"/><path class="cls-23" d="M176.59,180.4l-1.69,26.95a63,63,0,0,1-54.64-86.08l25.11,9.94a36,36,0,0,0,31.22,49.19Z"/><line class="cls-8" x1="188.85" y1="82.47" x2="194.85" y2="47.47"/><line class="cls-8" x1="194.85" y1="47.47" x2="215.85" y2="47.47"/><rect class="cls-24" x="216.24" y="43.05" width="9.28" height="9.28"/><text class="cls-1" transform="translate(228.87 51.76)">44% <tspan class="cls-25" x="29.42" y="0">M</tspan><tspan class="cls-13" x="41.16" y="0">a</tspan><tspan class="cls-26" x="48.09" y="0">t</tspan><tspan x="52.8" y="0">e</tspan><tspan class="cls-27" x="60.06" y="0">r</tspan><tspan x="64.85" y="0">iales </tspan><tspan class="cls-28" x="94.72" y="0">P</tspan><tspan x="102.07" y="0">esados</tspan></text><line class="cls-29" x1="232.85" y1="53.72" x2="371.85" y2="53.72"/><line class="cls-8" x1="126.35" y1="178.97" x2="109.12" y2="190.46"/><line class="cls-8" x1="219.64" y1="219.08" x2="208.35" y2="199.97"/><line class="cls-8" x1="255.19" y1="168.08" x2="238.85" y2="163.47"/></g></g></svg>