<svg xmlns="http://www.w3.org/2000/svg" viewBox="0 0 324.14 215.73"><defs><style>.cls-1{font-size:14.49px;}.cls-1,.cls-15{font-family:MyriadPro-Regular, Myriad Pro;}.cls-2{letter-spacing:0em;}.cls-3{letter-spacing:0em;}.cls-4{letter-spacing:-0.01em;}.cls-12,.cls-13,.cls-20,.cls-25,.cls-5,.cls-6,.cls-8{fill:none;}.cls-5{stroke:#004a80;}.cls-12,.cls-13,.cls-20,.cls-25,.cls-5,.cls-6,.cls-7,.cls-8,.cls-9{stroke-miterlimit:10;}.cls-13,.cls-25,.cls-6,.cls-7,.cls-8,.cls-9{stroke:#000;}.cls-6{stroke-width:0.5px;}.cls-22,.cls-7{fill:#004a80;}.cls-25,.cls-7,.cls-9{stroke-width:0.5px;}.cls-8{stroke-width:0.49px;}.cls-24,.cls-9{fill:#037f8c;}.cls-10{letter-spacing:0.02em;}.cls-11{letter-spacing:-0.01em;}.cls-12{stroke:#037f8c;}.cls-13{stroke-width:0.54px;}.cls-14{letter-spacing:0em;}.cls-15{font-size:28.23px;}.cls-16{letter-spacing:-0.03em;}.cls-17{letter-spacing:0.01em;}.cls-18{letter-spacing:0em;}.cls-19{letter-spacing:0em;}.cls-20{stroke:#012340;stroke-width:2px;}.cls-21{fill:blue;}.cls-23{fill:#012340;}</style></defs><title>Fondo del Río de la Plata</title><g id="Capa_2" data-name="Capa 2"><g id="Capa_1-2" data-name="Capa 1"><text class="cls-1" transform="translate(0 94.79) scale(1.01 1)">77% <tspan class="cls-2" x="29.42" y="0">P</tspan><tspan class="cls-3" x="37.06" y="0">lásti</tspan><tspan class="cls-4" x="61.39" y="0">c</tspan><tspan class="cls-3" x="67.8" y="0">os</tspan></text><line class="cls-5" x1="1.36" y1="96.97" x2="79.36" y2="96.97"/><line class="cls-6" x1="108.8" y1="90.46" x2="93.95" y2="90.46"/><rect class="cls-7" x="85.91" y="85.82" width="9.38" height="9.28"/><line class="cls-8" x1="238.37" y1="208.08" x2="226.09" y2="208.08"/><rect class="cls-9" x="238.37" y="202.78" width="9.28" height="9.28"/><text class="cls-1" transform="translate(250.87 212.1)">18% <tspan class="cls-10" x="29.42" y="0">O</tspan><tspan x="39.65" y="0">t</tspan><tspan class="cls-11" x="44.45" y="0">r</tspan><tspan x="49.04" y="0">os</tspan></text><line class="cls-12" x1="254.29" y1="214.06" x2="312.86" y2="213.97"/><line class="cls-13" x1="258.37" y1="158.08" x2="245.41" y2="158.08"/><rect class="cls-9" x="258.37" y="152.78" width="9.28" height="9.28"/><text class="cls-1" transform="translate(270.87 162.1)">5% L<tspan class="cls-14" x="28.83" y="0">a</tspan><tspan x="35.75" y="0">tas</tspan></text><line class="cls-12" x1="274.29" y1="164.06" x2="322.86" y2="163.97"/><text class="cls-15" transform="translate(12.77 23.63)"><tspan class="cls-16">F</tspan><tspan x="12.88" y="0">ondo del </tspan><tspan class="cls-17" x="124.17" y="0">R</tspan><tspan x="139.64" y="0">ío de la </tspan><tspan class="cls-18" x="230.04" y="0">P</tspan><tspan x="244.92" y="0">l</tspan><tspan class="cls-19" x="251.59" y="0">a</tspan><tspan x="265.08" y="0">ta</tspan></text><line class="cls-20" x1="19.86" y1="25.97" x2="293.86" y2="25.97"/><path class="cls-21" d="M172.36,83.47a63,63,0,0,0,0,126,62.29,62.29,0,0,0,7.9-.5l-3.39-26.78a37.15,37.15,0,0,1-4.51.28,36,36,0,1,1,36-36h27A63,63,0,0,0,172.36,83.47Z"/><path class="cls-22" d="M172.36,83.47a63,63,0,0,0,0,126,62.29,62.29,0,0,0,7.9-.5l-3.39-26.78a37.15,37.15,0,0,1-4.51.28,36,36,0,1,1,36-36h27A63,63,0,0,0,172.36,83.47Z"/><path class="cls-23" d="M235.36,146.47A63,63,0,0,1,232.29,166L206.6,157.6a35.92,35.92,0,0,0,1.76-11.13Z"/><path class="cls-24" d="M232.29,166a63.06,63.06,0,0,1-52,43l-3.39-26.78A36,36,0,0,0,206.6,157.6Z"/><line class="cls-25" x1="124.86" y1="104.97" x2="108.8" y2="90.46"/><line class="cls-25" x1="226.09" y1="208.08" x2="213.86" y2="193.97"/><line class="cls-25" x1="245.41" y1="158.08" x2="234.86" y2="155.97"/></g></g></svg>