<svg xmlns="http://www.w3.org/2000/svg" viewBox="0 0 110 73.46"><defs><style>.cls-1{fill:#211915;}.cls-2{font-size:13.74px;font-family:Rockwell-ExtraBold, Rockwell Extra Bold;font-weight:800;}.cls-3{fill:#fff;}</style></defs><title>Logo EcoBoat_1</title><g id="Capa_2" data-name="Capa 2"><g id="Capa_1-2" data-name="Capa 1"><path d="M87.86,31.07l.19-12.26-16-7.42S45.81,9.74,44,11.15c-.57.43-.62,2.09-.39,4.22a2.22,2.22,0,0,0,1.75,1.93h0l.54-3c2.42-.48,20.71.67,20.71.67l1,5.84a4.37,4.37,0,0,0,2.88,3.38h0l1-7.46,12.75,4.19,2,8.17a3,3,0,0,0,1.65,2Z"/><path class="cls-1" d="M45.31,17.3,43.76,17Z"/><path class="cls-1" d="M87.86,31.07c-.43-.2-.86-.4-1.31-.59"/><path d="M45.86,8.48s25.76.84,26.29,1,7.07-7.2,15.28-6.44C87.43,3.06,62-6.63,45.86,8.48Z"/><path d="M74.68,9.9s8.27-6,13.2-5.33,1.6,11.72,1.6,11.72Z"/><path d="M110,47S75.14,18.17,4.45,14.78c0,0,14,14.28,16.71,19.85s1.45,8,9,10.65c4.52,1.6,25.76,4.25,46,4.69-7.46-6.4-17.67-13.51-17.67-13.51,11.68,2.73,22,9.63,27.1,13.54,2,0,4-.1,5.88-.19C82.28,38.24,56.69,30.42,56.69,30.42,73.1,31.54,99,44,106.69,47.93A32.18,32.18,0,0,0,110,47Z"/><path d="M109.47,52.81s-73.39.53-90.45-6.4c0,0-7.19,2.13-19,1.51C-.79,47.88,37.77,70.4,109.47,52.81Z"/><text class="cls-2" transform="translate(23.49 66.47) rotate(10.07)">E</text><text class="cls-2" transform="matrix(0.99, 0.11, -0.11, 0.99, 34.08, 68.31)">c</text><text class="cls-2" transform="matrix(1, 0.05, -0.05, 1, 43.84, 69.36)">o</text><text class="cls-2" transform="translate(54.54 69.84) rotate(-1.04)">B</text><text class="cls-2" transform="translate(66.63 69.59) rotate(-4.35)">o</text><text class="cls-2" transform="matrix(0.99, -0.13, 0.13, 0.99, 77.19, 68.78)">a</text><text class="cls-2" transform="translate(87.65 67.41) rotate(-9.36)">t</text><path class="cls-3" d="M31.59,27.66,33.92,30l2.43-2.42-.11-.89a1.61,1.61,0,0,0-3-.66Zm9.71,3.22-3.15,1,1,3.28.84.31a1.64,1.64,0,0,0,1.82-.52A1.69,1.69,0,0,0,42,33.13C41.86,32.77,41.3,30.88,41.3,30.88Zm-7.7,7,.82-3.2-3.32-.84-.72.54a1.65,1.65,0,0,0-.51,1.83,1.75,1.75,0,0,0,1.43,1.13Z"/><path class="cls-3" d="M36.12,25.55l3.41.9a1,1,0,0,1,.66.74c.12.58.37,1.38.37,1.38l1.09-.2-2.18,2.28-3.13-.74,1.1-.35s-.64-3.9-1.33-4Zm5,10.33-2.37,2.61a1,1,0,0,1-1,.25c-.57-.16-1.39-.31-1.39-.31l-.33,1.06-1-3,2.09-2.44-.2,1.14s3.77,1.22,4.13.63Zm-11.63-.77-1-3.39a1,1,0,0,1,.29-.94c.44-.41,1-1,1-1l-.73-.83,3.07.7,1,3.07-.86-.77s-3,2.55-2.72,3.17Z"/></g></g></svg>